<svg width="33" height="24" viewBox="0 0 33 24" fill="none" xmlns="http://www.w3.org/2000/svg">
<path d="M2.7725 5.63324C3.50414 1.48392 6.20724 -0.178616 10.8818 0.645634C15.5563 1.46988 17.4722 4.27181 16.6295 9.05141C15.796 13.7785 11.7044 17.6332 4.35488 20.6156L0.012207 18.0628L6.02209 12.5425L5.93398 12.1208C3.25213 11.0522 2.19831 8.88968 2.7725 5.63324ZM18.5294 8.41161C19.2611 4.26229 21.9642 2.59976 26.6387 3.42401C31.3133 4.24826 33.2292 7.05018 32.3864 11.8298C31.5529 16.5569 27.4613 20.4116 20.1118 23.394L15.7691 20.8411L21.779 15.3209L21.6909 14.8992C19.0091 13.8306 17.9552 11.668 18.5294 8.41161Z" fill="#E6DFDC"/>
</svg>
