<svg width="34" height="24" viewBox="0 0 34 24" fill="none" xmlns="http://www.w3.org/2000/svg">
<path d="M30.6817 18.2717C29.9501 22.421 27.247 24.0836 22.5724 23.2593C17.8979 22.4351 15.9774 19.6594 16.8109 14.9323C17.6536 10.1527 21.7498 6.27173 29.0993 3.28933L33.442 5.8422L27.4321 11.3625L27.5202 11.7842C30.2021 12.8528 31.2559 15.0153 30.6817 18.2717ZM14.9248 15.4933C14.1932 19.6427 11.4901 21.3052 6.81551 20.481C2.14095 19.6567 0.220432 16.881 1.05394 12.154C1.89672 7.37437 5.99288 3.49336 13.3424 0.510956L17.6851 3.06383L11.6752 8.5841L11.7633 9.0058C14.4452 10.0744 15.499 12.2369 14.9248 15.4933Z" fill="#E5DFDC"/>
</svg>
