<svg width="32" height="32" viewBox="0 0 32 32" fill="none" xmlns="http://www.w3.org/2000/svg">
<rect x="27" width="5" height="5" rx="1" fill="#FAF4F2"/>
<rect x="18" width="5" height="5" rx="1" fill="#FAF4F2"/>
<rect x="9" width="5" height="5" rx="1" fill="#FAF4F2"/>
<rect width="5" height="5" rx="1" fill="#FAF4F2"/>
<rect y="9" width="5" height="5" rx="1" fill="#FAF4F2"/>
<rect y="18" width="5" height="5" rx="1" fill="#FAF4F2"/>
<rect y="27" width="5" height="5" rx="1" fill="#FAF4F2"/>
<rect x="9" y="27" width="5" height="5" rx="1" fill="#FAF4F2"/>
<rect x="18" y="27" width="5" height="5" rx="1" fill="#FAF4F2"/>
<rect x="27" y="27" width="5" height="5" rx="1" fill="#FAF4F2"/>
<rect x="27" y="18" width="5" height="5" rx="1" fill="#FAF4F2"/>
<rect x="27" y="9" width="5" height="5" rx="1" fill="#FAF4F2"/>
<rect x="18" y="9" width="5" height="5" rx="1" fill="#FAF4F2"/>
<rect x="18" y="18" width="5" height="5" rx="1" fill="#FAF4F2"/>
<rect x="9" y="18" width="5" height="5" rx="1" fill="#FAF4F2"/>
<rect x="9" y="9" width="5" height="5" rx="1" fill="#FAF4F2"/>
</svg>
